<svg width="24" height="25" viewBox="0 0 24 25" fill="none" xmlns="http://www.w3.org/2000/svg">
<path d="M20 22.9238C20.5523 22.9238 21 22.4761 21 21.9238C21 21.3715 20.5523 20.9238 20 20.9238C19.4477 20.9238 19 21.3715 19 21.9238C19 22.4761 19.4477 22.9238 20 22.9238Z" stroke="#01A985" stroke-width="1.2" stroke-linecap="round" stroke-linejoin="round"/>
<path d="M9 22.9238C9.55228 22.9238 10 22.4761 10 21.9238C10 21.3715 9.55228 20.9238 9 20.9238C8.44772 20.9238 8 21.3715 8 21.9238C8 22.4761 8.44772 22.9238 9 22.9238Z" stroke="#01A985" stroke-width="1.2" stroke-linecap="round" stroke-linejoin="round"/>
<path d="M1 1.92371H5L7.68 15.3137C7.77144 15.7741 8.02191 16.1877 8.38755 16.482C8.75318 16.7763 9.2107 16.9327 9.68 16.9237H19.4C19.8693 16.9327 20.3268 16.7763 20.6925 16.482C21.0581 16.1877 21.3086 15.7741 21.4 15.3137L23 6.92371H6" stroke="#01A985" stroke-width="1.2" stroke-linecap="round" stroke-linejoin="round"/>
</svg>
